_________________________  Visit us at _________________________
  
http://p2pdl.com  ____________________________  http://p2pdl.com

Marie Kroyer 2012 BRRip 720p x264 AAC - PRiSTiNE

Genre: Biography | Drama
Plot: The story of the marriage between the painters Marie and P.S. Krøyer.
Director: Bille August
Stars: Birgitte Hjort Sørensen, Søren Sætter-Lassen, Sverrir Gudnason
Rated: N/A

Info: 
http://www.imdb.com/title/tt1961192/

General
Complete name                  : Marie Kroyer 2012 BRRip 720p x264 AAC - PRiSTiNE.mp4
Format                         : MPEG-4
Format profile                 : Base Media
Codec ID                       : isom
File size                      : 587 MiB
Duration                       : 1h 42mn
Overall bit rate mode          : Variable
Overall bit rate               : 802 Kbps

Video
Format                         : AVC
Format/Info                    : Advanced Video Codec
Format profile                 : High 10@L4.1
Bit rate                       : 759 Kbps
Width                          : 1 280 pixels
Height                         : 544 pixels
Display aspect ratio           : 2.35:1
Frame rate mode                : Constant
Frame rate                     : 24.000 fps
Bit depth                      : 10 bits
Scan type                      : Progressive
Bits/(Pixel*Frame)             : 0.045
Stream size                    : 555 MiB (95%)
Writing library                : x264 core 129 r2245 bc13772

Audio
Format                         : AAC
Format/Info                    : Advanced Audio Codec
Bit rate mode                  : Variable
Bit rate                       : 40.0 Kbps
Channel(s)                     : 2 channels
Channel positions              : Front: L R
Sampling rate                  : 44.1 KHz / 22.05 KHz
Stream size                    : 29.3 MiB (5%)
Language                       : Danish

Subtitle                       : Yes (English)

Screens: 
http://imgr.us/images/u9gvvlmavweiso028rmm.jpg 
http://imgr.us/images/5lnhtt7kwbu62o8p9p3.jpg 
http://imgr.us/images/gv4xr1hulqdb4slkfj.jpg 
http://imgr.us/images/ks0kf97g3g649rpq7gko.jpg

Thumbs: 
http://imgr.us/images/lanawttmt157xj7u32t.jpg
----------------------------------------------------------------------------------------------------
Encoded using revolutionary 10bit encoding, which enables us to provide you more crispier 
and sharper images at small sizes, just make sure you follow our instructions without a fault.
Recommend to you to use latest version of VLC player. Install K-Lite Codec Pack or shark007 codecs
in case of any kind of problem in playback (For non-VLC Media Player users). Alternatively, install
Core AVC codecs, the fastest decoder that there is coupled with Community Center Codec Pack and play
on Windows Media Player Classic. Check sample to be sure.
Enjoy!